<?xml version="1.0"?>
<svg xmlns="http://www.w3.org/2000/svg" height="512px" viewBox="0 0 480.06137 480" width="512px" class=""><g><path d="m424.03125 272.027344h-176c-4.417969 0-8 3.582031-8 8 0 4.417968 3.582031 8 8 8h168v24c-.050781 39.746094-32.257812 71.953125-72 72-4.417969 0-8 3.582031-8 8 0 4.417968 3.582031 8 8 8 48.578125-.058594 87.941406-39.421875 88-88v-32c0-4.417969-3.582031-8-8-8zm0 0" data-original="#000000" class="active-path" data-old_color="#000000" fill="#FFFFFF"/><path d="m471.230469 128.066406c-3.246094.328125-78.03125 8.273438-126.511719 44.90625-3.710938-1.542968-7.554688-2.730468-11.488281-3.554687 1.851562-5.609375 2.796875-11.480469 2.800781-17.390625-.039062-27.152344-19.511719-50.378906-46.242188-55.152344 4.269532-7.574219 6.425782-16.15625 6.242188-24.847656 0-26.96875-45.671875-65.808594-50.878906-70.144532-2.96875-2.46875-7.277344-2.46875-10.242188 0-5.207031 4.335938-50.878906 43.175782-50.878906 70.144532-.183594 8.691406 1.972656 17.273437 6.238281 24.847656-15.984375 2.8125-29.960937 12.433594-38.296875 26.359375-8.339844 13.929687-10.214844 30.789063-5.140625 46.210937-3.875.832032-7.664062 2.027344-11.3125 3.574219-13.679687-10.09375-28.652343-18.304687-44.511719-24.425781-26.421874-10.265625-54.03125-17.164062-82.175781-20.527344-2.253906-.234375-4.5.503906-6.167969 2.035156-1.675781 1.515626-2.632812 3.667969-2.632812 5.925782-.617188 36.265625 8.101562 72.078125 25.320312 104h-1.320312c-4.417969 0-8 3.582031-8 8v64c.101562 63.105468 49.039062 115.359375 112 119.59375v40.40625c0 4.417968 3.582031 8 8 8h208c4.417969 0 8-3.582032 8-8v-40.40625c62.960938-4.234375 111.898438-56.488282 112-119.59375v-64c0-4.417969-3.582031-8-8-8h-1.320312c17.21875-31.921875 25.9375-67.734375 25.320312-104 .011719-2.265625-.941406-4.433594-2.617188-5.960938-1.679687-1.523437-3.925781-2.265625-6.183593-2.039062zm-305.769531 44c-7.898438-13.367187-7.304688-30.113281 1.527343-42.882812 8.835938-12.773438 24.289063-19.242188 39.585938-16.570313 4.371093.382813 8.34375-2.550781 9.265625-6.839843.738281-3.542969-.941406-7.148438-4.128906-8.859376-8.109376-5.570312-12.574219-15.089843-11.679688-24.886718 0-13.351563 22.75-38.085938 40-53.441406 17.246094 15.355468 40 40.089843 40 53.441406.898438 9.761718-3.523438 19.25-11.578125 24.839844-3.425781 2.046874-5.042969 6.148437-3.941406 9.984374 1.089843 3.9375 4.972656 6.421876 9.007812 5.761719 15.265625-2.5625 30.636719 3.9375 39.4375 16.675781 8.796875 12.738282 9.4375 29.414063 1.640625 42.785157-1.410156 2.441406-1.429687 5.445312-.054687 7.90625 1.371093 2.460937 3.941406 4.015625 6.757812 4.09375 26.0625.539062 46.867188 21.890625 46.730469 47.953125 0 2.679687-.222656 5.355468-.664062 8h-119.335938v-76.6875l29.65625-29.65625c3.03125-3.140625 2.988281-8.128906-.097656-11.214844-3.085938-3.085938-8.074219-3.128906-11.214844-.097656l-18.34375 18.34375v-36.6875c0-4.417969-3.582031-8-8-8s-8 3.582031-8 8v97.054687l-35.5625-23.710937c-3.675781-2.453125-8.640625-1.460938-11.09375 2.214844-2.453125 3.679687-1.460938 8.644531 2.214844 11.097656l44.441406 29.625v19.71875h-56.351562c-1.996094-20.789063-11.300782-40.199219-26.257813-54.777344 3.066406-.683594 6.195313-1.070312 9.335937-1.148438 2.820313-.082031 5.386719-1.636718 6.761719-4.097656 1.375-2.460937 1.355469-5.464844-.058593-7.902344zm-149.246094-26.871094c31.558594 4.847657 135.816406 26.03125 143.382812 94.832032h-51.445312l-37.601563-52.648438c-2.566406-3.59375-7.5625-4.429687-11.160156-1.863281s-4.429687 7.5625-1.863281 11.160156l30.960937 43.351563h-44.328125c-17.648437-28.535156-27.300781-61.289063-27.945312-94.832032zm319.816406 318.832032h-192v-32h192zm112-152c-.066406 57.410156-46.589844 103.933594-104 104h-208c-57.410156-.066406-103.933594-46.589844-104-104v-56h416zm-12.128906-72h-44.328125l30.96875-43.351563c2.566406-3.597656 1.730469-8.59375-1.863281-11.160156-3.597657-2.566406-8.59375-1.730469-11.160157 1.863281l-26.058593 36.480469c-2.042969-16.597656-10.558594-31.714844-23.695313-42.0625 35.296875-23.945313 84.160156-33.546875 104.082031-36.601563-.640625 33.546876-10.292968 66.300782-27.945312 94.832032zm0 0" data-original="#000000" class="active-path" data-old_color="#000000" fill="#FFFFFF"/></g> </svg>
