<svg xmlns="http://www.w3.org/2000/svg" viewBox="0 0 107.59 25.64"><defs><style>.cls-1{isolation:isolate;}.cls-2{fill:#52c41a;}.cls-3{opacity:0.35;mix-blend-mode:multiply;}.cls-4{stroke:#000;}.cls-4,.cls-5{stroke-miterlimit:10;stroke-width:0.25px;}.cls-5{fill:#fff;stroke:#d9ffc5;}</style></defs><title>logo</title><g class="cls-1"><g id="Слой_2" data-name="Слой 2"><g id="logo"><g id="logo-2" data-name="logo"><path id="line" class="cls-2" d="M104.16,20.8l3.43-.95s-5.13.68-6.69-5.77c-2.27-7.39,6.47-9.68,6.47-9.68s-8-1.1-9-3A1,1,0,0,1,98.43.26,441.25,441.25,0,0,1,8.32,0c.77.46,1.31,1.07.91,1.86-1,1.92-9,3-9,3S9,7.17,6.69,14.56C5.13,21,0,20.32,0,20.32l3.44,1s5.88.55,5.53,2.56a2.68,2.68,0,0,1-1.45,1.8,388.29,388.29,0,0,1,93.23-.16,3.06,3.06,0,0,1-2.12-2.11C98.27,21.35,104.16,20.8,104.16,20.8Z"/><g class="cls-3"><path class="cls-4" d="M23.44,16a2.3,2.3,0,0,0,1.42.91,1.91,1.91,0,0,0,1-.13l.05,0a7.37,7.37,0,0,0-.51.8l-.49.91,0,.05A4,4,0,0,1,23,17a2.75,2.75,0,0,1-1.36.09,3.07,3.07,0,0,1-1.75-.95l0,0a4.23,4.23,0,0,0,1.62.77,2.85,2.85,0,0,0,1.34,0l0-.07a1.13,1.13,0,0,0-.18-.28,3.14,3.14,0,0,1-1.26,0,4.06,4.06,0,0,1-2.59-1.8,5.77,5.77,0,0,1-1-3.37,4.59,4.59,0,0,1,1-3.13,3.2,3.2,0,0,1,2.67-1.13,3.15,3.15,0,0,1,2.58,1.42,6.05,6.05,0,0,1,1,3.6,6.31,6.31,0,0,1-.35,2.24A4.56,4.56,0,0,1,23.5,16ZM23.1,14.9a7.7,7.7,0,0,0,.47-3q0-4.15-2.21-4.25t-2.18,4a6.41,6.41,0,0,0,.59,3,2.29,2.29,0,0,0,1.64,1.35,1.74,1.74,0,0,0,.85-.06,1.4,1.4,0,0,0-1-.95h-.16l.46-.54a4.31,4.31,0,0,1,1.16.93l.08.08.19-.24,0,0a3.65,3.65,0,0,0-1.15-.91l.09-.15a5.08,5.08,0,0,1,1.08.81Zm-.46-6.37-.1,0a2.26,2.26,0,0,0-.89-.31,1.41,1.41,0,0,0-1.43.88,7.75,7.75,0,0,0-.44,3.07,4.26,4.26,0,0,0,1.32,3.52H21A2.22,2.22,0,0,1,20,14.34,6.68,6.68,0,0,1,19.62,12a7.28,7.28,0,0,1,.46-3.06A1.44,1.44,0,0,1,21.57,8a1.59,1.59,0,0,1,1.07.44Zm1-.87a3.18,3.18,0,0,1,1.45,1.68,6.86,6.86,0,0,1,.53,2.84,6,6,0,0,1-1.25,3.91,2.33,2.33,0,0,0,1.16.63v0h-.37a1.77,1.77,0,0,1-1.06-.66,5.37,5.37,0,0,0,1.34-3.95,5.46,5.46,0,0,0-1.8-4.44Zm2.73,9.63a10.55,10.55,0,0,0-1,1.63l-.05.07-.15-.12A7.86,7.86,0,0,1,25.7,18l.52-.77,0-.05Z"/><path class="cls-4" d="M27.09,7.43l3.14.11-.89,1-.06,8.14.83.95L27,17.22l.93-.75c0-2.68,0-5.36,0-8C27.7,8.09,27.4,7.76,27.09,7.43ZM30.52,8l-.68.77q0,4-.05,8c.37.54.74,1.09,1.1,1.64-1.14-.16-2.29-.33-3.43-.51-.06-.08-.11-.16-.17-.23l3.21.47c-.3-.44-.59-.88-.89-1.31q0-4.08.05-8.15l.75-.86Z"/><path class="cls-4" d="M43.12,4.86a11.41,11.41,0,0,0-1.4,2.63,36.85,36.85,0,0,0-1.13,4.29c-.39,1.78-.78,3.56-1.18,5.31.05.23.09.45.13.68l.81,1c-1-.08-2-.17-3-.27l.87-.84q-.57-2.76-1.14-5.48-.59,2.6-1.17,5.14L37,19.16q-1.7-.18-3.39-.39l-.13-.23c1,.13,2.1.24,3.15.36-.32-.52-.65-1-1-1.55q.64-2.78,1.29-5.6c-.07-.34-.15-.68-.22-1-.46,2.07-.93,4.11-1.39,6.13,0,.18.06.35.1.53l.77,1c-1-.1-2-.22-3-.34l.91-.79c-.63-2.93-1.25-5.82-1.88-8.65-.32-.35-.65-.7-1-1l3.24.09-.92,1L35,15.51c.08-.32.16-.65.23-1Q34.66,11.64,34,8.8l.61-.65.15.14-.55.59c.37,1.73.75,3.48,1.12,5.25Q36.1,11,36.82,7.71l.63,0q.82,4,1.67,8c.08-.32.15-.63.22-.95-.49-2.38-1-4.74-1.48-7.08H38c.46,2.2.93,4.42,1.39,6.66.21-.94.43-1.89.64-2.85A21.39,21.39,0,0,0,40.67,8,1.71,1.71,0,0,0,40,6.58a12,12,0,0,0,1.67-.85,8.29,8.29,0,0,0,1.33-1Zm.4.66a10.94,10.94,0,0,0-1.33,2.57,33.88,33.88,0,0,0-1.07,4c-.4,1.83-.8,3.66-1.2,5.46l1.26,2-3.41-.31L37.62,19c1.05.11,2.11.2,3.16.29l-1.07-1.69q.63-2.8,1.25-5.66A32.91,32.91,0,0,1,42,8a12.57,12.57,0,0,1,1.33-2.64Z"/><path class="cls-4" d="M43.32,7.84l3.14,0-.89,1.18c0,3,0,6.09,0,9.14l.83,1L43.26,19l.93-.94c0-3,0-6.07,0-9.11Zm3.44.55c-.23.29-.46.58-.68.88l0,9,1.11,1.72-3.46-.21-.16-.24,3.23.19c-.3-.46-.6-.92-.91-1.38q0-4.56,0-9.12l.75-1Z"/><path class="cls-4" d="M52.59,7.93h3a4.07,4.07,0,0,1,2.7.7,3.09,3.09,0,0,1,1,2.46,3.37,3.37,0,0,1-.39,1.66,2.29,2.29,0,0,1-1.1,1,5.86,5.86,0,0,1-2.24.32h-.82v4.34l.81,1-3.1,0,.93-1V14.77h-.11a1.75,1.75,0,0,0-.92.27l-.06-.16a1.42,1.42,0,0,1,.8-.33h.3v-.44l-.21,0a1.48,1.48,0,0,0-1.14.46L52,14.38a1.34,1.34,0,0,1,1.3-1h.11V9Zm6.37,1a1.87,1.87,0,0,1,.65.94,4.81,4.81,0,0,1,.25,1.53,3.3,3.3,0,0,1-1.12,2.8,4.78,4.78,0,0,1-2.88.65h-.58v3.69l1,1.67c-1.11,0-2.23,0-3.34,0l-.18-.24c1,0,2.09,0,3.14,0-.29-.44-.57-.89-.85-1.33v-4c.38,0,.79,0,1.23,0a3.51,3.51,0,0,0,2.55-.83,3.38,3.38,0,0,0,.82-2.5,4,4,0,0,0-.16-1.21A4.84,4.84,0,0,0,59,8.89Zm-4.2,0c0,1.49,0,3,0,4.48h.35v-4h.73a2.62,2.62,0,0,1,1.2.2,1.62,1.62,0,0,1,.59.84A1.46,1.46,0,0,0,57,9.75a2.43,2.43,0,0,0-1-.18h-.68v3.78a3,3,0,0,0,1.94-.52,2,2,0,0,0,.61-1.64,2.49,2.49,0,0,0-.55-1.8,2.38,2.38,0,0,0-1.76-.57C55.31,8.82,55.06,8.84,54.76,8.86Z"/><path class="cls-4" d="M60.94,7.93l3.14,0-.89,1.22,0,9.24.84.91-3.1.1.92-1.05c0-3.1,0-6.19,0-9.29C61.55,8.66,61.24,8.3,60.94,7.93Zm3.44.47c-.23.3-.45.61-.67.91q0,4.51,0,9L64.86,20c-1.16.05-2.31.1-3.47.13l-.17-.24c1.08,0,2.16-.06,3.24-.11l-.91-1.3,0-9.21.75-1Z"/><path class="cls-4" d="M73,7.77c-1.75,3.44-3.51,7-5.27,10.57l.42,0c1.72-3.53,3.45-7,5.16-10.37l.12.2c-1.68,3.3-3.36,6.7-5.06,10.16l.67,0,.52-.05.28,0a2.33,2.33,0,0,0,1-.34,2.12,2.12,0,0,0,.74-.75,7,7,0,0,0,.52-1.21,11,11,0,0,0,1.2,2.78q-3.78.33-7.57.51,2.44-5,4.88-9.91h-1A2.9,2.9,0,0,0,68,9.66a2.31,2.31,0,0,0-.66,1.44l-.14-.2a2.54,2.54,0,0,1,.54-1.25,1.37,1.37,0,0,1,.65-.45,5.29,5.29,0,0,1,1.25-.14h1.11L71,8.58c-.31,0-.62,0-.92,0a7.74,7.74,0,0,0-1.88.19,1.85,1.85,0,0,0-.89.7,3.87,3.87,0,0,0-.48,1.13l0-.15c-.22-.67-.54-1.48-1-2.44l0-.1Q69.4,7.85,73,7.77Zm1,10.78-.33.79c-2.53.24-5.06.42-7.6.56L66,19.67c2.55-.13,5.09-.32,7.63-.55l.24-.56A9,9,0,0,1,72.61,16l.23.1A8,8,0,0,0,74,18.47Z"/><path class="cls-4" d="M82.37,7.53c-1.75,3.21-3.5,6.58-5.25,10.07l.42,0c1.72-3.42,3.43-6.72,5.14-9.86l.12.18c-1.68,3.08-3.35,6.31-5,9.65l.66-.07.52-.07.27,0a2.46,2.46,0,0,0,1-.37,2.15,2.15,0,0,0,.73-.74,6.39,6.39,0,0,0,.53-1.15,8.73,8.73,0,0,0,1.19,2.52q-3.77.51-7.54.89C76.78,15.23,78.4,12,80,9h-.14L79,9a3.05,3.05,0,0,0-1.66.39,2.17,2.17,0,0,0-.66,1.37l-.14-.18a2.34,2.34,0,0,1,.54-1.19,1.29,1.29,0,0,1,.65-.44A5.14,5.14,0,0,1,79,8.79c.37,0,.71,0,1,0h.1l.25-.47c-.31,0-.61,0-.91,0a8.08,8.08,0,0,0-1.89.21,1.72,1.72,0,0,0-.88.68,3,3,0,0,0-.47,1.07l-.06-.14c-.22-.63-.54-1.39-1-2.3l0-.09C77.58,7.67,80,7.61,82.37,7.53Zm1,9.93-.33.75q-3.78.55-7.56.95L75.36,19c2.54-.26,5.08-.57,7.6-.93l.24-.53A7.85,7.85,0,0,1,82,15.13l.23.08a6.76,6.76,0,0,0,1.14,2.19Z"/><path class="cls-4" d="M90.64,7.23,90,8.11c.36,1,.73,2,1.09,3l.26-.18-1-2.72.69-.9.18.07-.67.86c.31.87.62,1.73.93,2.57l.1-.09.21-.21a2.43,2.43,0,0,0,.25-.26,4.7,4.7,0,0,0,.53,1.35l-.27,0a1.76,1.76,0,0,0-.92.32c.4,1.1.8,2.19,1.2,3.24.33.21.66.42,1,.61-1.11.22-2.21.43-3.32.62l.91-1c-.25-.64-.49-1.3-.74-2a9.31,9.31,0,0,0-1.11,1.68l-.15,0a10.57,10.57,0,0,1,1.15-1.75l.06-.07c0-.1-.09-.2-.13-.3a7.25,7.25,0,0,0-1.29,1.84l-.12-.2c-.23-.37-.53-.79-.88-1.27l-.07-.08a6.47,6.47,0,0,0-.5,2.13,1.73,1.73,0,0,0,.15.77,5.08,5.08,0,0,0,.69,1s.07.1.14.18c-1.18.21-2.37.41-3.56.59l-.13-.18c1.12-.17,2.24-.36,3.35-.55l-.11-.13a3.86,3.86,0,0,1-.57-.84,1.88,1.88,0,0,1-.14-.76,8,8,0,0,1,.53-2.33l-.29-.31c-.06.17-.13.41-.21.73s-.15.52-.22.79a4.34,4.34,0,0,0-.17,1,1.47,1.47,0,0,0,.13.68,2.73,2.73,0,0,0,.53.67l.12.12q-1.65.27-3.3.51a5.15,5.15,0,0,0,1.49-1.73,15,15,0,0,0,1.07-3.05l0-.1a1.56,1.56,0,0,0-1-.32,6.41,6.41,0,0,0,.55-1.34l.12.11.29.29a4,4,0,0,0,.37.3l.12-.33-.08-.07-.56-.49-.06-.05.1-.17a5,5,0,0,1,.68.55c.3-1,.59-1.89.89-2.82l-.71-.82C88.61,7.32,89.62,7.28,90.64,7.23ZM88.72,8.81c-.35,1-.69,2.1-1,3.18a8.72,8.72,0,0,1,.87,1c.1.14.2.29.31.43l.06.09.07-.09.09-.14.07-.1a6.85,6.85,0,0,0-1.08-1.31c.28-.86.56-1.71.83-2.55Zm.3.83-.72,2.18.07.08.27.31a6.86,6.86,0,0,1,.56.76l.06.1a6.39,6.39,0,0,1,.67-.85C89.63,11.37,89.32,10.51,89,9.64Zm3.58.9a6.75,6.75,0,0,0,.73,1.61h-.16l-.54,0-.52,0-.13,0c.37,1,.73,1.94,1.1,2.89.49.36,1,.71,1.46,1-1.26.27-2.53.52-3.79.76l-.13-.16c1.16-.22,2.33-.45,3.48-.69-.39-.27-.78-.56-1.18-.85-.39-1-.78-2-1.17-3.08a2.23,2.23,0,0,1,.51-.13,5,5,0,0,1,.79,0L93,11.84a5.63,5.63,0,0,1-.57-1.41Z"/></g><path class="cls-5" d="M22.44,15a2.3,2.3,0,0,0,1.42.91,1.91,1.91,0,0,0,1-.13l.05,0a7.37,7.37,0,0,0-.51.8l-.49.91,0,.05A4,4,0,0,1,22,16a2.75,2.75,0,0,1-1.36.09,3.07,3.07,0,0,1-1.75-1l0,0a4.23,4.23,0,0,0,1.62.77,2.85,2.85,0,0,0,1.34,0l0-.07a1.13,1.13,0,0,0-.18-.28,3.14,3.14,0,0,1-1.26,0,4.06,4.06,0,0,1-2.59-1.8,5.77,5.77,0,0,1-1-3.37,4.59,4.59,0,0,1,1-3.13,3.2,3.2,0,0,1,2.67-1.13,3.15,3.15,0,0,1,2.58,1.42,6.05,6.05,0,0,1,1,3.6,6.31,6.31,0,0,1-.35,2.24A4.56,4.56,0,0,1,22.5,15ZM22.1,13.9a7.7,7.7,0,0,0,.47-3q0-4.15-2.21-4.25t-2.18,4a6.41,6.41,0,0,0,.59,3,2.29,2.29,0,0,0,1.64,1.35,1.74,1.74,0,0,0,.85-.06,1.4,1.4,0,0,0-1-.95h-.16l.46-.54a4.31,4.31,0,0,1,1.16.93l.08.08.19-.24,0,0a3.65,3.65,0,0,0-1.15-.91l.09-.15a5.08,5.08,0,0,1,1.08.81Zm-.46-6.37-.1,0a2.26,2.26,0,0,0-.89-.31,1.41,1.41,0,0,0-1.43.88,7.75,7.75,0,0,0-.44,3.07,4.26,4.26,0,0,0,1.32,3.52H20A2.22,2.22,0,0,1,19,13.34,6.68,6.68,0,0,1,18.62,11a7.28,7.28,0,0,1,.46-3.06A1.44,1.44,0,0,1,20.57,7a1.59,1.59,0,0,1,1.07.44Zm1-.87a3.18,3.18,0,0,1,1.45,1.68,6.86,6.86,0,0,1,.53,2.84,6,6,0,0,1-1.25,3.91,2.33,2.33,0,0,0,1.16.63v0h-.37a1.77,1.77,0,0,1-1.06-.66,5.37,5.37,0,0,0,1.34-3.95,5.46,5.46,0,0,0-1.8-4.44Zm2.73,9.63a10.55,10.55,0,0,0-1,1.63l-.05.07-.15-.12A7.86,7.86,0,0,1,24.7,17l.52-.77,0-.05Z"/><path class="cls-5" d="M26.09,6.43l3.14.11-.89,1-.06,8.14.83.95L26,16.22l.93-.75c0-2.68,0-5.36,0-8C26.7,7.09,26.4,6.76,26.09,6.43ZM29.52,7l-.68.77q0,4-.05,8c.37.54.74,1.09,1.1,1.64-1.14-.16-2.29-.33-3.43-.51-.06-.08-.11-.16-.17-.23l3.21.47c-.3-.44-.59-.88-.89-1.31q0-4.08.05-8.15l.75-.86Z"/><path class="cls-5" d="M42.12,3.86a11.41,11.41,0,0,0-1.4,2.63,36.85,36.85,0,0,0-1.13,4.29c-.39,1.78-.78,3.56-1.18,5.31.05.23.09.45.13.68l.81,1c-1-.08-2-.17-3-.27l.87-.84q-.57-2.76-1.14-5.48-.59,2.6-1.17,5.14L36,18.16q-1.7-.18-3.39-.39l-.13-.23c1,.13,2.1.24,3.15.36-.32-.52-.65-1-1-1.55q.64-2.78,1.29-5.6c-.07-.34-.15-.68-.22-1-.46,2.07-.93,4.11-1.39,6.13,0,.18.06.35.1.53l.77,1c-1-.1-2-.22-3-.34l.91-.79c-.63-2.93-1.25-5.82-1.88-8.65-.32-.35-.65-.7-1-1l3.24.09-.92,1L34,14.51c.08-.32.16-.65.23-1Q33.66,10.64,33,7.8l.61-.65.15.14-.55.59c.37,1.73.75,3.48,1.12,5.25Q35.1,10,35.82,6.71l.63,0q.82,4,1.67,8c.08-.32.15-.63.22-.95-.49-2.38-1-4.74-1.48-7.08H37c.46,2.2.93,4.42,1.39,6.66.21-.94.43-1.89.64-2.85A21.39,21.39,0,0,0,39.67,7,1.71,1.71,0,0,0,39,5.58a12,12,0,0,0,1.67-.85,8.29,8.29,0,0,0,1.33-1Zm.4.66a10.94,10.94,0,0,0-1.33,2.57,33.88,33.88,0,0,0-1.07,4c-.4,1.83-.8,3.66-1.2,5.46l1.26,2-3.41-.31L36.62,18c1.05.11,2.11.2,3.16.29l-1.07-1.69q.63-2.8,1.25-5.66A32.91,32.91,0,0,1,41,7a12.57,12.57,0,0,1,1.33-2.64Z"/><path class="cls-5" d="M42.32,6.84l3.14,0-.89,1.18c0,3,0,6.09,0,9.14l.83,1L42.26,18l.93-.94c0-3,0-6.07,0-9.11Zm3.44.55c-.23.29-.46.58-.68.88l0,9,1.11,1.72-3.46-.21-.16-.24,3.23.19c-.3-.46-.6-.92-.91-1.38q0-4.56,0-9.12l.75-1Z"/><path class="cls-5" d="M51.59,6.93h3a4.07,4.07,0,0,1,2.7.7,3.09,3.09,0,0,1,1,2.46,3.37,3.37,0,0,1-.39,1.66,2.29,2.29,0,0,1-1.1,1,5.86,5.86,0,0,1-2.24.32h-.82v4.34l.81,1-3.1,0,.93-1V13.77h-.11a1.75,1.75,0,0,0-.92.27l-.06-.16a1.42,1.42,0,0,1,.8-.33h.3v-.44l-.21,0a1.48,1.48,0,0,0-1.14.46L51,13.38a1.34,1.34,0,0,1,1.3-1h.11V8Zm6.37,1a1.87,1.87,0,0,1,.65.94,4.81,4.81,0,0,1,.25,1.53,3.3,3.3,0,0,1-1.12,2.8,4.78,4.78,0,0,1-2.88.65h-.58v3.69l1,1.67c-1.11,0-2.23,0-3.34,0l-.18-.24c1,0,2.09,0,3.14,0-.29-.44-.57-.89-.85-1.33v-4c.38,0,.79,0,1.23,0a3.51,3.51,0,0,0,2.55-.83,3.38,3.38,0,0,0,.82-2.5,4,4,0,0,0-.16-1.21A4.84,4.84,0,0,0,58,7.89Zm-4.2,0c0,1.49,0,3,0,4.48h.35v-4h.73a2.62,2.62,0,0,1,1.2.2,1.62,1.62,0,0,1,.59.84A1.46,1.46,0,0,0,56,8.75a2.43,2.43,0,0,0-1-.18h-.68v3.78a3,3,0,0,0,1.94-.52,2,2,0,0,0,.61-1.64,2.49,2.49,0,0,0-.55-1.8,2.38,2.38,0,0,0-1.76-.57C54.31,7.82,54.06,7.84,53.76,7.86Z"/><path class="cls-5" d="M59.94,6.93l3.14,0-.89,1.22,0,9.24.84.91-3.1.1.92-1.05c0-3.1,0-6.19,0-9.29C60.55,7.66,60.24,7.3,59.94,6.93Zm3.44.47c-.23.3-.45.61-.67.91q0,4.51,0,9L63.86,19c-1.16.05-2.31.1-3.47.13l-.17-.24c1.08,0,2.16-.06,3.24-.11l-.91-1.3,0-9.21.75-1Z"/><path class="cls-5" d="M72,6.77c-1.75,3.44-3.51,7-5.27,10.57l.42,0c1.72-3.53,3.45-7,5.16-10.37l.12.2c-1.68,3.3-3.36,6.7-5.06,10.16l.67,0,.52-.05.28,0a2.33,2.33,0,0,0,1-.34,2.12,2.12,0,0,0,.74-.75,7,7,0,0,0,.52-1.21,11,11,0,0,0,1.2,2.78q-3.78.33-7.57.51,2.44-5,4.88-9.91h-1A2.9,2.9,0,0,0,67,8.66a2.31,2.31,0,0,0-.66,1.44l-.14-.2a2.54,2.54,0,0,1,.54-1.25,1.37,1.37,0,0,1,.65-.45,5.29,5.29,0,0,1,1.25-.14h1.11L70,7.58c-.31,0-.62,0-.92,0a7.74,7.74,0,0,0-1.88.19,1.85,1.85,0,0,0-.89.7,3.87,3.87,0,0,0-.48,1.13l0-.15c-.22-.67-.54-1.48-1-2.44l0-.1Q68.4,6.85,72,6.77Zm1,10.78-.33.79c-2.53.24-5.06.42-7.6.56L65,18.67c2.55-.13,5.09-.32,7.63-.55l.24-.56A9,9,0,0,1,71.61,15l.23.1A8,8,0,0,0,73,17.47Z"/><path class="cls-5" d="M81.37,6.53c-1.75,3.21-3.5,6.58-5.25,10.07l.42,0C78.26,13.14,80,9.84,81.68,6.7l.12.18c-1.68,3.08-3.35,6.31-5,9.65l.66-.07.52-.07.27,0a2.46,2.46,0,0,0,1-.37,2.15,2.15,0,0,0,.73-.74,6.39,6.39,0,0,0,.53-1.15,8.73,8.73,0,0,0,1.19,2.52q-3.77.51-7.54.89C75.78,14.23,77.4,11,79,8h-.14L78,8a3.05,3.05,0,0,0-1.66.39,2.17,2.17,0,0,0-.66,1.37l-.14-.18a2.34,2.34,0,0,1,.54-1.19,1.29,1.29,0,0,1,.65-.44A5.14,5.14,0,0,1,78,7.79c.37,0,.71,0,1,0h.1l.25-.47c-.31,0-.61,0-.91,0a8.08,8.08,0,0,0-1.89.21,1.72,1.72,0,0,0-.88.68,3,3,0,0,0-.47,1.07l-.06-.14c-.22-.63-.54-1.39-1-2.3l0-.09C76.58,6.67,79,6.61,81.37,6.53Zm1,9.93-.33.75q-3.78.55-7.56.95L74.36,18c2.54-.26,5.08-.57,7.6-.93l.24-.53A7.85,7.85,0,0,1,81,14.13l.23.08a6.76,6.76,0,0,0,1.14,2.19Z"/><path class="cls-5" d="M89.64,6.23,89,7.11c.36,1,.73,2,1.09,3l.26-.18-1-2.72.69-.9.18.07-.67.86c.31.87.62,1.73.93,2.57l.1-.09.21-.21A2.43,2.43,0,0,0,91,9.27a4.7,4.7,0,0,0,.53,1.35l-.27,0a1.76,1.76,0,0,0-.92.32c.4,1.1.8,2.19,1.2,3.24.33.21.66.42,1,.61-1.11.22-2.21.43-3.32.62l.91-1c-.25-.64-.49-1.3-.74-2a9.31,9.31,0,0,0-1.11,1.68l-.15,0a10.57,10.57,0,0,1,1.15-1.75l.06-.07c0-.1-.09-.2-.13-.3a7.25,7.25,0,0,0-1.29,1.84l-.12-.2c-.23-.37-.53-.79-.88-1.27l-.07-.08a6.47,6.47,0,0,0-.5,2.13,1.73,1.73,0,0,0,.15.77,5.08,5.08,0,0,0,.69,1s.07.1.14.18c-1.18.21-2.37.41-3.56.59l-.13-.18c1.12-.17,2.24-.36,3.35-.55l-.11-.13a3.86,3.86,0,0,1-.57-.84,1.88,1.88,0,0,1-.14-.76,8,8,0,0,1,.53-2.33l-.29-.31c-.06.17-.13.41-.21.73s-.15.52-.22.79a4.34,4.34,0,0,0-.17,1,1.47,1.47,0,0,0,.13.68,2.73,2.73,0,0,0,.53.67l.12.12q-1.65.27-3.3.51a5.15,5.15,0,0,0,1.49-1.73,15,15,0,0,0,1.07-3.05l0-.1a1.56,1.56,0,0,0-1-.32,6.41,6.41,0,0,0,.55-1.34l.12.11.29.29a4,4,0,0,0,.37.3l.12-.33-.08-.07-.56-.49-.06-.05.1-.17a5,5,0,0,1,.68.55c.3-1,.59-1.89.89-2.82l-.71-.82C87.61,6.32,88.62,6.28,89.64,6.23ZM87.72,7.81c-.35,1-.69,2.1-1,3.18a8.72,8.72,0,0,1,.87,1c.1.14.2.29.31.43l.06.09.07-.09.09-.14.07-.1a6.85,6.85,0,0,0-1.08-1.31c.28-.86.56-1.71.83-2.55Zm.3.83-.72,2.18.07.08.27.31a6.86,6.86,0,0,1,.56.76l.06.1a6.39,6.39,0,0,1,.67-.85C88.63,10.37,88.32,9.51,88,8.64Zm3.58.9a6.75,6.75,0,0,0,.73,1.61h-.16l-.54,0-.52,0-.13,0c.37,1,.73,1.94,1.1,2.89.49.36,1,.71,1.46,1-1.26.27-2.53.52-3.79.76l-.13-.16c1.16-.22,2.33-.45,3.48-.69-.39-.27-.78-.56-1.18-.85-.39-1-.78-2-1.17-3.08a2.23,2.23,0,0,1,.51-.13,5,5,0,0,1,.79,0L92,10.84a5.63,5.63,0,0,1-.57-1.41Z"/></g></g></g></g></svg>